#N canvas 2681 98 404 544 10;
#X obj 195 211 noise~;
#X obj 71 228 /~;
#X obj 148 121 *~, f 6;
#X obj 98 78 *~;
#X obj 141 56 nbx 5 14 1 10 0 1 empty empty pulsewidth 0 -6 1 8 -262144
-1 -1 5 256;
#X obj 77 334 +~;
#X obj 109 194 +~ 1;
#X obj 105 251 *~ 0.4;
#X obj 103 283 *~;
#X obj 52 197 sig~ 1;
#X obj 121 459 outlet~;
#X obj 104 308 *~ 3;
#X obj 110 11 r a;
#X obj 333 38 bng 15 250 50 0 empty empty empty 17 7 0 10 -262144 -1
-1;
#X obj 17 11 inlet;
#X obj 122 433 *~ 1;
#X obj 106 161 *~;
#X obj 120 391 swordd;
#X obj 64 41 osc~ 1;
#X obj 166 255 bp~ 2600 1;
#X obj 79 368 *~ 0.7;
#X connect 0 0 19 0;
#X connect 1 0 5 0;
#X connect 1 0 7 0;
#X connect 2 0 16 0;
#X connect 2 0 16 1;
#X connect 3 0 2 0;
#X connect 3 0 2 1;
#X connect 4 0 3 1;
#X connect 5 0 20 0;
#X connect 6 0 1 1;
#X connect 7 0 8 0;
#X connect 8 0 11 0;
#X connect 9 0 1 0;
#X connect 11 0 5 1;
#X connect 12 0 13 0;
#X connect 12 0 18 1;
#X connect 14 0 18 0;
#X connect 15 0 10 0;
#X connect 16 0 6 0;
#X connect 17 0 15 0;
#X connect 18 0 3 0;
#X connect 19 0 8 1;
#X connect 20 0 17 0;
