#N canvas 2131 65 513 552 12;
#X obj 206 235 noise~;
#X obj 82 252 /~;
#X obj 112 146 *~;
#X obj 157 129 nbx 5 14 1 10 0 1 empty empty pulsewidth 0 -6 1 8 -262144
-1 -1 5 256;
#X obj 88 358 +~;
#X obj 122 225 +~ 1;
#X obj 116 275 *~ 0.4;
#X obj 114 307 *~;
#X obj 90 392 *~ 0.2;
#X obj 63 221 sig~ 1;
#X obj 85 495 outlet~;
#X obj 115 332 *~ 3;
#X obj 224 92 r a;
#X obj 86 469 *~ 1;
#X obj 151 178 *~;
#X obj 158 209 *~;
#X floatatom 263 154 5 0 0 0 - - -, f 5;
#X obj 89 80 inlet;
#X obj 105 431 swordd;
#X obj 177 277 bp~ 2700 1;
#X obj 92 116 osc~ 1;
#X connect 0 0 19 0;
#X connect 1 0 4 0;
#X connect 1 0 6 0;
#X connect 2 0 14 0;
#X connect 2 0 14 1;
#X connect 3 0 2 1;
#X connect 4 0 8 0;
#X connect 5 0 1 1;
#X connect 6 0 7 0;
#X connect 7 0 11 0;
#X connect 8 0 18 0;
#X connect 9 0 1 0;
#X connect 11 0 4 1;
#X connect 12 0 16 0;
#X connect 12 0 20 1;
#X connect 13 0 10 0;
#X connect 14 0 15 0;
#X connect 14 0 15 1;
#X connect 15 0 5 0;
#X connect 17 0 20 0;
#X connect 18 0 13 0;
#X connect 19 0 7 1;
#X connect 20 0 2 0;
