#N canvas 1041 126 774 605 10;
#X obj 85 37 bng 15 250 50 0 empty empty empty 17 7 0 10 -262144 -1
-1;
#X obj 27 118 s a;
#X msg 30 88 0;
#X obj 565 368 select 0;
#X obj 577 199 t b, f 5;
#X floatatom 605 322 5 0 0 0 - - -, f 5;
#X obj 576 443 unpack f f;
#N canvas 250 231 450 396 reynolds 0;
#X floatatom 43 111 5 0 0 0 - - -, f 5;
#X floatatom 44 173 15 0 0 0 - - -, f 15;
#X obj 44 140 * 156800;
#X obj 42 82 *;
#X obj 42 53 * 6.24;
#X obj 38 210 moses 50000;
#X obj 80 21 inlet;
#X obj 108 56 inlet;
#X obj 103 250 outlet;
#X connect 0 0 2 0;
#X connect 1 0 5 0;
#X connect 2 0 1 0;
#X connect 3 0 0 0;
#X connect 4 0 3 0;
#X connect 5 1 8 0;
#X connect 6 0 4 0;
#X connect 7 0 3 1;
#X restore 579 480 pd reynolds;
#X msg 565 412 0.8 1;
#N canvas 544 50 402 592 swing 0;
#X floatatom 47 164 5 0 0 0 - - -, f 5;
#X obj 93 127 bng 15 250 50 0 empty empty empty 17 7 0 10 -262144 -1
-1;
#X floatatom 198 201 5 0 0 0 - - -, f 5;
#X obj 201 242 delay;
#X obj 94 79 inlet;
#X obj 192 171 + 400;
#X obj 171 140 random 400;
#X msg 437 61 0;
#X msg 437 61 0;
#X msg 189 84 0, f 1;
#X obj 193 312 swosh_run_b;
#X obj 47 204 swosh_run_a;
#X connect 0 0 11 0;
#X connect 1 0 0 0;
#X connect 1 0 6 0;
#X connect 2 0 3 0;
#X connect 3 0 10 0;
#X connect 4 0 1 0;
#X connect 5 0 2 0;
#X connect 6 0 5 0;
#X restore 580 507 pd swing;
#X obj 540 319 mod 2;
#X obj 604 279 random 100;
#X msg 650 349 150;
#X obj 604 238 metro 600;
#X obj 231 149 unpack f f;
#N canvas 112 189 450 396 reynolds 0;
#X floatatom 43 111 5 0 0 0 - - -, f 5;
#X floatatom 44 173 15 0 0 0 - - -, f 15;
#X obj 44 140 * 156800;
#X obj 42 82 *;
#X obj 42 53 * 6.24;
#X obj 38 209 moses 50000;
#X obj 80 21 inlet;
#X obj 108 56 inlet;
#X obj 106 286 outlet;
#X msg 126 245 bang;
#X connect 0 0 2 0;
#X connect 1 0 5 0;
#X connect 2 0 1 0;
#X connect 3 0 0 0;
#X connect 4 0 3 0;
#X connect 5 1 9 0;
#X connect 6 0 4 0;
#X connect 7 0 3 1;
#X connect 9 0 8 0;
#X restore 232 177 pd reynolds;
#N canvas 439 129 402 592 swing 0;
#X floatatom 47 164 5 0 0 0 - - -, f 5;
#X obj 93 127 bng 15 250 50 0 empty empty empty 17 7 0 10 -262144 -1
-1;
#X obj 94 79 inlet;
#X msg 437 61 0;
#X msg 437 61 0;
#X obj 189 252 swosh_run_b;
#X obj 47 204 swosh_run_a;
#N canvas 0 50 450 300 fighttimer 0;
#X floatatom 131 139 5 0 0 0 - - -, f 5;
#X obj 125 171 delay;
#X obj 125 109 + 400;
#X obj 104 78 random 400;
#X obj 106 34 inlet;
#X obj 123 225 outlet;
#X msg 125 198 bang;
#X connect 0 0 1 0;
#X connect 1 0 6 0;
#X connect 2 0 0 0;
#X connect 3 0 2 0;
#X connect 4 0 3 0;
#X connect 6 0 5 0;
#X restore 190 195 pd fighttimer;
#X obj 241 223 bng 15 250 50 0 empty empty empty 17 7 0 10 -262144
-1 -1;
#X connect 0 0 6 0;
#X connect 1 0 0 0;
#X connect 1 0 7 0;
#X connect 2 0 1 0;
#X connect 7 0 5 0;
#X connect 7 0 8 0;
#X restore 232 237 pd swing;
#X msg 235 84 0.8 1;
#X msg 232 207 bang;
#X obj 103 176 del 3000;
#X obj 576 157 delay 3000;
#X msg 85 84 draw_input \; speed 1 \; magnitude 0.5 \;;
#X msg 103 146 bang;
#X msg 486 79 draw_input \; speed 1 \; magnitude 0.5 \;;
#X msg 553 136 bang;
#X obj 466 47 bng 15 250 50 0 empty empty empty 17 7 0 10 -262144 -1
-1;
#X obj 34 174 draw_run;
#X connect 0 0 21 0;
#X connect 0 0 2 0;
#X connect 2 0 1 0;
#X connect 3 0 8 0;
#X connect 4 0 13 0;
#X connect 6 0 7 0;
#X connect 6 1 7 1;
#X connect 7 0 9 0;
#X connect 8 0 6 0;
#X connect 10 0 3 0;
#X connect 11 0 5 0;
#X connect 11 0 10 0;
#X connect 12 0 3 1;
#X connect 13 0 11 0;
#X connect 14 0 15 0;
#X connect 14 1 15 1;
#X connect 15 0 18 0;
#X connect 17 0 14 0;
#X connect 18 0 16 0;
#X connect 19 0 17 0;
#X connect 20 0 4 0;
#X connect 21 0 22 0;
#X connect 21 0 26 0;
#X connect 22 0 19 0;
#X connect 23 0 24 0;
#X connect 24 0 20 0;
#X connect 25 0 23 0;
