#N canvas 67 324 771 650 12;
#X obj 101 295 *~;
#X obj 101 329 clip~ -0.8 0.8;
#X obj 180 123 bng 15 250 50 0 empty empty empty 17 7 0 10 -262144
-1 -1;
#X obj 256 299 *~;
#X obj 180 87 inlet a;
#X obj 255 332 clip~ -0.8 0.8;
#X obj 67 223 draw_a;
#X obj 244 218 draw_b;
#X obj 99 384 *~;
#X obj 131 358 r magnitude;
#X obj 293 363 r magnitude;
#X obj 252 386 *~;
#X obj 89 443 dac~;
#X obj 246 439 dac~;
#X obj 340 193 del 1000;
#X obj 291 264 swosh_env;
#X obj 132 257 swosh_env;
#X obj 243 189 r speed;
#X obj 67 189 r speed;
#X msg 149 203 500;
#X msg 339 224 500;
#X connect 0 0 1 0;
#X connect 1 0 8 0;
#X connect 2 0 19 0;
#X connect 2 0 14 0;
#X connect 3 0 5 0;
#X connect 4 0 2 0;
#X connect 5 0 11 0;
#X connect 6 0 0 0;
#X connect 7 0 3 0;
#X connect 8 0 12 0;
#X connect 8 0 12 1;
#X connect 9 0 8 1;
#X connect 10 0 11 1;
#X connect 11 0 13 0;
#X connect 11 0 13 1;
#X connect 14 0 20 0;
#X connect 15 0 3 1;
#X connect 16 0 0 1;
#X connect 19 0 16 0;
#X connect 20 0 15 0;
