#N canvas 308 186 1158 440 12;
#N canvas 72 295 1603 635 isim 0;
#X obj 118 124 bng 25 250 50 0 empty empty empty 17 7 0 10 -257985
-1 -1;
#X obj 50 179 s a;
#X obj 130 232 draw_run;
#X msg 53 149 0;
#X obj 1428 464 select 0;
#X obj 1440 295 t b, f 5;
#X floatatom 1468 418 5 0 0 0 - - -, f 5;
#X obj 1439 539 unpack f f;
#N canvas 250 231 450 396 reynolds 0;
#X floatatom 43 111 5 0 0 0 - - -, f 5;
#X floatatom 44 173 15 0 0 0 - - -, f 15;
#X obj 44 140 * 156800;
#X obj 42 82 *;
#X obj 42 53 * 6.24;
#X obj 38 210 moses 50000;
#X obj 80 21 inlet;
#X obj 108 56 inlet;
#X obj 103 250 outlet;
#X connect 0 0 2 0;
#X connect 1 0 5 0;
#X connect 2 0 1 0;
#X connect 3 0 0 0;
#X connect 4 0 3 0;
#X connect 5 1 8 0;
#X connect 6 0 4 0;
#X connect 7 0 3 1;
#X restore 1442 576 pd reynolds;
#X msg 1428 508 0.8 1;
#N canvas 544 50 402 592 swing 0;
#X floatatom 47 164 5 0 0 0 - - -, f 5;
#X obj 93 127 bng 15 250 50 0 empty empty empty 17 7 0 10 -262144 -1
-1;
#X floatatom 198 201 5 0 0 0 - - -, f 5;
#X obj 201 242 delay;
#X obj 94 79 inlet;
#X obj 192 171 + 400;
#X obj 171 140 random 400;
#X msg 437 61 0;
#X msg 437 61 0;
#X msg 189 84 0, f 1;
#X obj 193 312 swosh_run_b;
#X obj 47 204 swosh_run_a;
#X connect 0 0 11 0;
#X connect 1 0 0 0;
#X connect 1 0 6 0;
#X connect 2 0 3 0;
#X connect 3 0 10 0;
#X connect 4 0 1 0;
#X connect 5 0 2 0;
#X connect 6 0 5 0;
#X restore 1443 603 pd swing;
#X obj 1403 415 mod 2;
#X obj 1467 375 random 100;
#X obj 218 292 unpack f f;
#N canvas 967 450 450 396 reynolds 0;
#X floatatom 112 111 5 0 0 0 - - -, f 5;
#X floatatom 113 173 15 0 0 0 - - -, f 15;
#X obj 113 140 * 156800;
#X obj 111 82 *;
#X obj 111 53 * 6.24;
#X obj 107 209 moses 50000;
#X obj 149 21 inlet;
#X obj 177 56 inlet;
#X obj 175 286 outlet;
#X msg 195 245 bang;
#X connect 0 0 2 0;
#X connect 1 0 5 0;
#X connect 2 0 1 0;
#X connect 3 0 0 0;
#X connect 4 0 3 0;
#X connect 5 1 9 0;
#X connect 6 0 4 0;
#X connect 7 0 3 1;
#X connect 9 0 8 0;
#X coords 0 396 1 395 85 60 0;
#X restore 219 320 pd reynolds;
#N canvas 973 226 402 592 swing 0;
#X floatatom 47 164 5 0 0 0 - - -, f 5;
#X obj 93 127 bng 15 250 50 0 empty empty empty 17 7 0 10 -262144 -1
-1;
#X obj 94 79 inlet;
#X msg 437 61 0;
#X msg 437 61 0;
#X obj 189 252 swosh_run_b;
#X obj 47 204 swosh_run_a;
#N canvas 0 50 450 300 fighttimer 0;
#X floatatom 131 139 5 0 0 0 - - -, f 5;
#X obj 125 171 delay;
#X obj 106 34 inlet;
#X obj 123 225 outlet;
#X msg 125 198 bang;
#X obj 104 78 random 800;
#X obj 123 109 + 400;
#X connect 0 0 1 0;
#X connect 1 0 4 0;
#X connect 2 0 5 0;
#X connect 4 0 3 0;
#X connect 5 0 6 0;
#X connect 6 0 0 0;
#X restore 190 195 pd fighttimer;
#X obj 241 223 bng 15 250 50 0 empty empty empty 17 7 0 10 -262144
-1 -1;
#X connect 0 0 6 0;
#X connect 1 0 0 0;
#X connect 1 0 7 0;
#X connect 2 0 1 0;
#X connect 7 0 5 0;
#X connect 7 0 8 0;
#X restore 219 380 pd swing;
#X msg 262 167 0.8 1;
#X msg 219 350 bang;
#X obj 108 335 del 3000;
#X msg 118 159 draw_input \; speed 1 \; magnitude 0.5 \;;
#X msg 108 305 bang;
#X msg 1348 168 draw_input \; speed 1 \; magnitude 0.5 \;;
#X msg 1416 232 bang;
#X obj 580 120 bng 30 250 50 0 empty empty empty 17 7 0 10 -204786
-1 -1;
#X text 262 91 sword length and frequency of swooshing;
#X text 574 91 Random Swooshing Model;
#X msg 1480 147 0;
#X obj 1482 178 s t;
#X obj 1524 484 r t;
#X msg 1480 103 150;
#X text 1464 77 click to stop;
#X obj 1522 104 s y;
#X obj 1526 452 r y;
#X obj 266 123 bng 25 250 50 0 empty empty empty 17 7 0 10 -262144
-1 -1;
#X text 116 91 DRAW the swords;
#X text 260 148 (Keep pressing to continue);
#X obj 1457 264 delay 500;
#X obj 643 120 bng 30 250 50 0 empty empty empty 17 7 0 10 -258113
-1 -1;
#X text 677 124 click to stop;
#X obj 808 161 bng 30 250 50 0 empty empty empty 17 7 0 10 -4160 -1
-1;
#X obj 898 209 hit;
#X text 776 84 Hit the swords;
#X obj 1466 334 metro 700;
#X obj 1113 494 select 0;
#X obj 1125 325 t b, f 5;
#X floatatom 1153 448 5 0 0 0 - - -, f 5;
#X obj 1152 405 random 100;
#X msg 1033 198 draw_input \; speed 1 \; magnitude 0.5 \;;
#X msg 1101 262 bang;
#X msg 1157 180 0;
#X obj 1159 211 s t;
#X obj 1209 514 r t;
#X obj 1142 294 delay 500;
#X obj 1115 545 hit;
#X obj 1150 364 metro 900;
#X obj 894 161 bng 30 250 50 0 empty empty empty 17 7 0 10 -4032 -1
-1;
#X text 794 114 randomly;
#X text 890 116 manually;
#X obj 1088 445 mod 2;
#X obj 808 223 bng 30 250 50 0 empty empty empty 17 7 0 10 -258113
-1 -1;
#X text 800 200 click to stop;
#X msg 814 302 150;
#X obj 856 303 s z;
#X obj 1211 482 r z;
#X msg 835 389 0;
#X obj 837 420 s t;
#X connect 0 0 19 0;
#X connect 0 0 3 0;
#X connect 3 0 1 0;
#X connect 4 0 9 0;
#X connect 5 0 42 0;
#X connect 7 0 8 0;
#X connect 7 1 8 1;
#X connect 8 0 10 0;
#X connect 9 0 7 0;
#X connect 11 0 4 0;
#X connect 12 0 6 0;
#X connect 12 0 11 0;
#X connect 13 0 14 0;
#X connect 13 1 14 1;
#X connect 14 0 17 0;
#X connect 16 0 13 0;
#X connect 17 0 15 0;
#X connect 18 0 33 0;
#X connect 19 0 2 0;
#X connect 19 0 20 0;
#X connect 20 0 18 0;
#X connect 21 0 22 0;
#X connect 22 0 36 0;
#X connect 23 0 26 0;
#X connect 23 0 21 0;
#X connect 26 0 27 0;
#X connect 28 0 4 1;
#X connect 29 0 31 0;
#X connect 32 0 4 1;
#X connect 33 0 16 0;
#X connect 36 0 5 0;
#X connect 37 0 29 0;
#X connect 39 0 47 0;
#X connect 39 0 64 0;
#X connect 42 0 12 0;
#X connect 43 0 53 0;
#X connect 44 0 54 0;
#X connect 46 0 45 0;
#X connect 46 0 58 0;
#X connect 47 0 48 0;
#X connect 48 0 52 0;
#X connect 49 0 50 0;
#X connect 51 0 43 1;
#X connect 52 0 44 0;
#X connect 54 0 46 0;
#X connect 55 0 40 0;
#X connect 58 0 43 0;
#X connect 59 0 61 0;
#X connect 61 0 62 0;
#X connect 63 0 43 1;
#X connect 64 0 65 0;
#X coords 0 0 1 8 900 200 1 100 80;
#X restore 96 98 pd isim;
#X text 102 57 please read the "some notes" section of the "readme"
first;
