#N canvas 768 203 441 571 10;
#X obj 87 96 vline~;
#X obj 87 128 *~;
#X obj 90 357 dac~;
#X obj 87 161 *~ 0.5;
#X obj 87 195 hip~ 200;
#X obj 146 231 swordping;
#X msg 86 61 4 \, 0 2;
#X obj 144 271 *~ 0.5;
#X obj 87 228 swordd;
#X obj 87 26 inlet;
#X connect 0 0 1 0;
#X connect 0 0 1 1;
#X connect 1 0 3 0;
#X connect 3 0 4 0;
#X connect 4 0 5 0;
#X connect 4 0 8 0;
#X connect 5 0 7 0;
#X connect 6 0 0 0;
#X connect 7 0 2 0;
#X connect 7 0 2 1;
#X connect 8 0 2 0;
#X connect 8 0 2 1;
#X connect 9 0 6 0;
