#N canvas 989 493 851 477 10;
#X floatatom 43 111 5 0 0 0 - - -, f 5;
#X floatatom 44 173 15 0 0 0 - - -, f 15;
#X obj 44 140 * 156800;
#X obj 42 82 *;
#X obj 42 53 * 6.24;
#X obj 38 209 moses 50000;
#X floatatom 74 282 5 0 0 0 - - -, f 5;
#X obj 120 245 bng 15 250 50 0 empty empty empty 17 7 0 10 -262144
-1 -1;
#X obj 198 258 random 400;
#X floatatom 225 319 5 0 0 0 - - -, f 5;
#X obj 219 289 + 100;
#X obj 226 345 delay;
#X obj 67 316 swosh_run_a;
#X obj 241 390 swosh_run_b;
#X obj 153 14 r sword_length;
#X obj 217 64 r swosh_frequency;
#X floatatom 219 151 5 0 0 0 - - -, f 5;
#X obj 78 9 inlet;
#X obj 105 53 inlet;
#X connect 0 0 2 0;
#X connect 1 0 5 0;
#X connect 2 0 1 0;
#X connect 3 0 0 0;
#X connect 4 0 3 0;
#X connect 5 0 7 0;
#X connect 6 0 12 0;
#X connect 7 0 6 0;
#X connect 7 0 8 0;
#X connect 8 0 10 0;
#X connect 9 0 11 0;
#X connect 10 0 9 0;
#X connect 11 0 13 0;
#X connect 17 0 4 0;
#X connect 18 0 3 1;
