#N canvas 305 490 450 392 10;
#X obj 86 200 *~ 1000;
#X obj 104 11 loadbang;
#X obj 87 272 outlet~;
#X obj 86 221 clip~ -0.6 0.6;
#X obj 104 55 unpack f f f f f;
#X obj 8 145 bp~ 1 1;
#X obj 86 145 bp~ 1 1;
#X obj 153 146 bp~ 1 1;
#X obj 223 146 bp~ 1 1;
#X obj 86 167 *~ 0.3;
#X obj 223 167 *~ 0.2;
#X obj 8 168 *~ 0.4;
#X obj 153 167 *~ 0.2;
#X obj 86 242 *~ 0.1;
#X obj 8 10 inlet~;
#X msg 103 33 1748 3000 3590 4260 300;
#X connect 0 0 3 0;
#X connect 1 0 15 0;
#X connect 3 0 13 0;
#X connect 4 0 5 1;
#X connect 4 1 6 1;
#X connect 4 2 7 1;
#X connect 4 3 8 1;
#X connect 4 4 6 2;
#X connect 4 4 5 2;
#X connect 4 4 7 2;
#X connect 4 4 8 2;
#X connect 5 0 11 0;
#X connect 6 0 9 0;
#X connect 7 0 12 0;
#X connect 8 0 10 0;
#X connect 9 0 0 0;
#X connect 10 0 0 0;
#X connect 11 0 0 0;
#X connect 12 0 0 0;
#X connect 13 0 2 0;
#X connect 14 0 5 0;
#X connect 14 0 6 0;
#X connect 14 0 7 0;
#X connect 14 0 8 0;
#X connect 15 0 4 0;
