#N canvas 76 177 944 667 10;
#X obj 212 16 loadbang;
#X obj 189 282 outlet~;
#X obj 6 145 bp~ 1 1;
#X obj 189 164 bp~ 1 1;
#X obj 326 165 bp~ 1 1;
#X obj 189 186 *~ 0.3;
#X obj 326 186 *~ 0.2;
#X obj 6 168 *~ 0.4;
#X obj 256 186 *~ 0.2;
#X obj 256 165 bp~ 1 1;
#X obj 208 74 unpack f f f f f;
#X obj 6 10 inlet~;
#X msg 211 52 2643 3691 2998 3473 3583;
#X obj 190 240 clip~ -0.6 0.6;
#X obj 189 261 *~ 0.1;
#X obj 189 218 *~ 800;
#X connect 0 0 12 0;
#X connect 2 0 7 0;
#X connect 3 0 5 0;
#X connect 4 0 6 0;
#X connect 5 0 15 0;
#X connect 6 0 15 0;
#X connect 7 0 15 0;
#X connect 8 0 15 0;
#X connect 9 0 8 0;
#X connect 10 0 2 1;
#X connect 10 1 3 1;
#X connect 10 2 9 1;
#X connect 10 3 4 1;
#X connect 10 4 3 2;
#X connect 10 4 2 2;
#X connect 10 4 4 2;
#X connect 10 4 9 2;
#X connect 11 0 2 0;
#X connect 11 0 3 0;
#X connect 11 0 9 0;
#X connect 11 0 4 0;
#X connect 12 0 10 0;
#X connect 13 0 14 0;
#X connect 14 0 1 0;
#X connect 15 0 13 0;
