#N canvas 953 471 450 300 10;
#X obj 86 200 *~ 1000;
#X obj 86 242 *~ 0.4;
#X obj 104 11 loadbang;
#X obj 86 263 outlet~;
#X obj 8 145 bp~ 1 1;
#X obj 86 145 bp~ 1 1;
#X obj 223 146 bp~ 1 1;
#X obj 86 167 *~ 0.3;
#X obj 223 167 *~ 0.2;
#X obj 8 168 *~ 0.4;
#X obj 153 167 *~ 0.2;
#X obj 87 221 clip~ -0.6 0.6;
#X obj 153 146 bp~ 1 1;
#X obj 105 55 unpack f f f f f;
#X msg 108 33 2994 2638 3692 4260 700;
#X obj 9 10 inlet~;
#X connect 0 0 11 0;
#X connect 1 0 3 0;
#X connect 2 0 14 0;
#X connect 4 0 9 0;
#X connect 5 0 7 0;
#X connect 6 0 8 0;
#X connect 7 0 0 0;
#X connect 8 0 0 0;
#X connect 9 0 0 0;
#X connect 10 0 0 0;
#X connect 11 0 1 0;
#X connect 12 0 10 0;
#X connect 13 0 4 1;
#X connect 13 1 5 1;
#X connect 13 2 12 1;
#X connect 13 3 6 1;
#X connect 13 4 5 2;
#X connect 13 4 4 2;
#X connect 13 4 6 2;
#X connect 13 4 12 2;
#X connect 14 0 13 0;
#X connect 15 0 4 0;
#X connect 15 0 5 0;
#X connect 15 0 6 0;
#X connect 15 0 12 0;
