#N canvas 572 255 453 559 12;
#X obj 99 400 dac~;
#X obj 54 145 unpack f f;
#X obj 84 254 *~;
#X floatatom 74 178 5 0 0 0 - - -, f 5;
#X floatatom 163 171 5 0 0 0 - - -, f 5;
#X msg 64 87 1 770;
#X obj 164 119 s a;
#X msg 156 83 0;
#X obj 70 36 inlet;
#X obj 108 215 swosh_env_b;
#X obj 53 211 swosh2;
#X obj 98 291 clip~ -0.8 0.8;
#X obj 102 330 *~ 1;
#X obj 220 55 t b;
#X connect 1 0 3 0;
#X connect 1 0 10 0;
#X connect 1 1 4 0;
#X connect 1 1 9 0;
#X connect 2 0 11 0;
#X connect 5 0 1 0;
#X connect 5 0 7 0;
#X connect 7 0 6 0;
#X connect 8 0 13 0;
#X connect 9 0 2 1;
#X connect 10 0 2 0;
#X connect 11 0 12 0;
#X connect 12 0 0 0;
#X connect 12 0 0 1;
#X connect 13 0 5 0;
