#N canvas 1225 315 500 596 10;
#X obj 77 242 /~;
#X obj 137 191 *~;
#X obj 129 144 *~;
#X obj 175 113 nbx 5 14 1 10 0 1 empty empty pulsewidth 0 -6 1 8 -262144
-1 -1 10 256;
#X obj 87 370 +~;
#X obj 137 213 +~ 1;
#X obj 104 264 *~ 0.4;
#X obj 106 304 *~;
#X obj 88 213 sig~ 1;
#X obj 110 493 outlet~;
#X obj 82 118 osc~ 1;
#X obj 176 31 r a;
#X floatatom 162 71 5 0 0 0 - - -, f 5;
#X obj 197 206 noise~;
#X obj 79 27 inlet~;
#X obj 107 411 *~ 0.7;
#X obj 111 454 *~ 1;
#X obj 317 113 lop~ 250;
#X obj 116 337 *~ 1;
#X obj 175 254 bp~ 500 1;
#X obj 272 182 noise~;
#X obj 244 300 bp~ 150 1;
#X connect 0 0 4 0;
#X connect 0 0 6 0;
#X connect 1 0 5 0;
#X connect 2 0 1 0;
#X connect 2 0 1 1;
#X connect 3 0 2 1;
#X connect 4 0 15 0;
#X connect 5 0 0 1;
#X connect 6 0 7 0;
#X connect 7 0 18 0;
#X connect 8 0 0 0;
#X connect 10 0 2 0;
#X connect 11 0 12 0;
#X connect 12 0 10 1;
#X connect 13 0 19 0;
#X connect 14 0 10 0;
#X connect 15 0 16 0;
#X connect 16 0 9 0;
#X connect 18 0 4 1;
#X connect 19 0 7 1;
#X connect 20 0 21 0;
#X connect 21 0 7 1;
