#N canvas 25 410 464 543 10;
#X obj 302 295 clip~ -0.8 0.8;
#X obj 73 153 unpack f f;
#X obj 303 404 dac~;
#X obj 84 301 clip~ -0.8 0.8;
#X obj 258 149 unpack f f;
#X obj 288 258 *~;
#X floatatom 278 182 5 0 0 0 - - -, f 5;
#X floatatom 345 179 5 0 0 0 - - -, f 5;
#X msg 268 91 1 770;
#X obj 81 391 dac~;
#X obj 84 262 *~;
#X obj 189 145 s a;
#X msg 152 107 0;
#X obj 341 136 s a;
#X msg 333 100 0;
#X obj 120 29 inlet;
#X obj 88 341 *~ 3;
#X obj 306 334 *~ 3;
#X obj 67 210 swosh;
#X obj 257 215 swosh2;
#X msg 107 73 2 330;
#X obj 274 40 inlet;
#X obj 118 205 swosh_env_a;
#X obj 312 219 swosh_env_b;
#X connect 0 0 17 0;
#X connect 1 0 18 0;
#X connect 1 1 22 0;
#X connect 3 0 16 0;
#X connect 4 0 6 0;
#X connect 4 0 19 0;
#X connect 4 1 7 0;
#X connect 4 1 23 0;
#X connect 5 0 0 0;
#X connect 8 0 4 0;
#X connect 8 0 14 0;
#X connect 10 0 3 0;
#X connect 12 0 11 0;
#X connect 14 0 13 0;
#X connect 15 0 20 0;
#X connect 16 0 9 1;
#X connect 16 0 9 0;
#X connect 17 0 2 0;
#X connect 17 0 2 1;
#X connect 18 0 10 0;
#X connect 19 0 5 0;
#X connect 20 0 12 0;
#X connect 20 0 1 0;
#X connect 21 0 8 0;
#X connect 22 0 10 1;
#X connect 23 0 5 1;
