#N canvas 57 52 438 563 10;
#X obj 165 264 noise~;
#X obj 217 238 dac~;
#X obj 87 248 /~;
#X obj 155 198 *~;
#X obj 135 168 *~;
#X obj 126 264 +~ 1;
#X obj 118 410 +~;
#X obj 88 376 *~ 0.1;
#X obj 150 345 *~;
#X obj 150 375 *~ 0.3;
#X obj 231 136 nbx 5 14 1 20 0 1 empty empty chop 0 -6 1 8 -262144
-1 -1 10 256;
#X obj 214 160 *~;
#X obj 120 470 outlet~;
#X obj 168 31 inlet~;
#X obj 135 94 nbx 5 14 1 10 0 1 empty empty pulsewidth 0 -6 1 8 -262144
-1 -1 10 256;
#X obj 261 31 r a;
#X obj 214 86 osc~;
#X obj 78 205 sig~ 1;
#X obj 217 207 vd~ a;
#X obj 214 184 +~ 500;
#X obj 184 314 bp~ 100 1;
#X obj 244 271 noise~;
#X obj 320 271 noise~;
#X obj 257 318 bp~ 202 1;
#X obj 334 321 bp~ 83 1;
#X obj 232 468 delwrite~ a 400;
#X connect 0 0 20 0;
#X connect 2 0 7 0;
#X connect 2 0 8 0;
#X connect 3 0 5 0;
#X connect 4 0 3 0;
#X connect 4 0 3 1;
#X connect 5 0 2 1;
#X connect 6 0 12 0;
#X connect 7 0 6 0;
#X connect 8 0 9 0;
#X connect 9 0 6 1;
#X connect 10 0 11 1;
#X connect 11 0 19 0;
#X connect 13 0 16 0;
#X connect 14 0 4 0;
#X connect 15 0 16 1;
#X connect 16 0 11 0;
#X connect 16 0 4 1;
#X connect 17 0 2 0;
#X connect 18 0 1 1;
#X connect 18 0 1 0;
#X connect 19 0 18 0;
#X connect 20 0 8 1;
#X connect 21 0 23 0;
#X connect 22 0 24 0;
#X connect 23 0 8 1;
#X connect 24 0 8 1;
