#N canvas 88 262 227 524 10;
#X obj 73 153 unpack f f;
#X obj 84 301 clip~ -0.8 0.8;
#X obj 81 391 dac~;
#X obj 84 262 *~;
#X obj 189 145 s a;
#X msg 152 107 0;
#X obj 120 14 inlet;
#X obj 88 341 *~ 3;
#X obj 67 210 swosh;
#X obj 118 205 swosh_env_a;
#X msg 107 73 1 800;
#X obj 137 43 t b;
#X connect 0 0 8 0;
#X connect 0 1 9 0;
#X connect 1 0 7 0;
#X connect 3 0 1 0;
#X connect 5 0 4 0;
#X connect 6 0 11 0;
#X connect 7 0 2 1;
#X connect 7 0 2 0;
#X connect 8 0 3 0;
#X connect 9 0 3 1;
#X connect 10 0 5 0;
#X connect 10 0 0 0;
#X connect 11 0 10 0;
